<?xml version="1.0" encoding="utf-8"?>
<!-- Generator: Adobe Illustrator 24.1.1, SVG Export Plug-In . SVG Version: 6.00 Build 0)  -->
<svg version="1.1" id="Layer_2" xmlns="http://www.w3.org/2000/svg" xmlns:xlink="http://www.w3.org/1999/xlink" x="0px" y="0px"
	 viewBox="0 0 708 666" style="enable-background:new 0 0 708 666;" xml:space="preserve">
<style type="text/css">
	.st0{fill:#01001C;stroke:#000000;stroke-miterlimit:10;}
	.st1{fill:#FFFFFF;stroke:#000000;stroke-miterlimit:10;}
</style>
<g>
	<g>
		
			<ellipse transform="matrix(0.828 -0.5607 0.5607 0.828 -45.1105 105.4341)" class="st0" cx="149.3" cy="126.2" rx="139.9" ry="107.1"/>
		
			<ellipse transform="matrix(0.828 -0.5607 0.5607 0.828 -47.4519 104.1748)" class="st1" cx="146.1" cy="129.4" rx="102.3" ry="82.4"/>
	</g>
	<g>
		
			<ellipse transform="matrix(0.3614 -0.9324 0.9324 0.3614 231.527 618.5305)" class="st0" cx="567.3" cy="140.2" rx="107.1" ry="139.9"/>
		
			<ellipse transform="matrix(0.3614 -0.9324 0.9324 0.3614 229.4605 613.843)" class="st1" cx="562.8" cy="139.4" rx="82.4" ry="102.3"/>
	</g>
	<ellipse class="st0" cx="358.2" cy="370.6" rx="304.5" ry="280.5"/>
	<ellipse class="st1" cx="358.2" cy="370.6" rx="254.5" ry="230"/>
	<g>
		<g>
			<path d="M359,163.2c2.2,16.3,4,32.6,5.8,48.9c0.9,8.2,1.7,16.3,2.5,24.5c0.8,8.2,1.4,16.3,2.1,24.5c0.6,8.2,1.8,16.3,2.8,24.5
				c0.9,8.2,1.2,16.3,0.6,24.5c-0.5,8.2-1.5,16.4-3,24.6c-1.6,8.2-3.5,16.4-6.8,24.6l-2.4,0c-3.6-8.1-5.9-16.2-7.8-24.4
				c-1.8-8.1-3.2-16.3-4-24.4c-0.9-8.2-1-16.3-0.4-24.5c0.6-8.2,1.5-16.4,1.8-24.5c0.3-8.2,0.7-16.4,1.1-24.5
				c0.4-8.2,1-16.4,1.5-24.5c1.1-16.4,2.2-32.7,3.8-49.1L359,163.2z"/>
		</g>
		<g>
			<path d="M453.7,443c-8.9-3.5-17.5-7.5-26.2-11.3c-4.3-2-8.6-4-12.8-6c-4.2-2.1-8.5-4.2-12.7-6.3c-4.2-2.2-8.7-3.9-13-5.8
				c-2.2-1-4.3-2.1-6.2-3.3c-2-1.3-3.8-2.7-5.6-4.3c-3.5-3.2-6.8-6.6-9.8-10.6c-3-4-5.8-8.3-7.8-13.8l1.3-2
				c5.8-0.3,10.9,0.5,15.7,1.6c4.9,1.1,9.4,2.8,13.7,4.7c2.2,1,4.2,2.1,6.2,3.4c1.9,1.3,3.8,2.8,5.5,4.4c3.5,3.2,6.9,6.6,10.5,9.6
				c3.6,3,7.3,6,10.9,9c3.6,3.1,7.1,6.2,10.7,9.3c7,6.4,14.1,12.7,20.9,19.4L453.7,443z"/>
		</g>
		<g>
			<circle class="st0" cx="361.1" cy="377.5" r="37"/>
			<circle class="st1" cx="361.1" cy="377.5" r="25.5"/>
		</g>
	</g>
</g>
</svg>
